<svg width="30" height="30" viewBox="0 0 30 30" fill="none" xmlns="http://www.w3.org/2000/svg">
<path d="M15 30C23.2843 30 30 23.2843 30 15C30 6.71573 23.2843 0 15 0C6.71573 0 0 6.71573 0 15C0 23.2843 6.71573 30 15 30Z" fill="#F0EFEF"/>
<path d="M29.9993 15.121C30.0078 12.0437 29.0772 9.03711 27.3318 6.50273C25.5863 3.96835 23.1092 2.02684 20.2312 0.9375V29.0625C23.0709 27.988 25.5213 26.0835 27.2635 23.5969C29.0057 21.1103 29.959 18.1569 29.9993 15.121Z" fill="#D71F2A"/>
<path d="M3.02347e-05 15.121C0.0426994 18.1604 1.00045 21.1165 2.74834 23.6034C4.49623 26.0904 6.9531 27.9928 9.79842 29.0625V0.9375C6.91475 2.02195 4.43115 3.96136 2.68004 6.49615C0.928927 9.03094 -0.00612912 12.0401 3.02347e-05 15.121Z" fill="#1F56A6"/>
</svg>
