<svg width="30" height="30" viewBox="0 0 30 30" fill="none" xmlns="http://www.w3.org/2000/svg">
<path d="M15 30C23.2843 30 30 23.2842 30 15C30 6.7157 23.2843 0 15 0C6.71571 0 0 6.7157 0 15C0 23.2842 6.71571 30 15 30Z" fill="#F0EFEF"/>
<path d="M29.9986 15C29.9802 11.9398 29.0338 8.95724 27.2843 6.4464C25.5348 3.93556 23.0646 2.01465 20.2002 0.9375V29.0625C23.0646 27.9854 25.5348 26.0644 27.2843 23.5536C29.0338 21.0427 29.9802 18.0602 29.9986 15Z" fill="#D71F2A"/>
<path d="M0 15C0.0160495 18.0566 0.958105 21.0366 2.70192 23.547C4.44573 26.0575 6.90936 27.9805 9.7681 29.0625V0.9375C6.90936 2.01952 4.44573 3.94252 2.70192 6.45295C0.958105 8.96339 0.0160495 11.9434 0 15Z" fill="#6CA442"/>
</svg>
