<svg width="834" height="98" viewBox="0 0 834 98" fill="none" xmlns="http://www.w3.org/2000/svg">
<path d="M0.268 96V2.256H31.768C37.312 2.256 41.428 3.642 44.116 6.414C46.888 9.186 48.274 13.68 48.274 19.896V30.228C48.274 34.176 47.308 37.368 45.376 39.804C43.528 42.24 41.596 43.794 39.58 44.466C46.552 46.65 50.038 51.984 50.038 60.468V74.328C50.038 88.776 44.368 96 33.028 96H0.268ZM24.46 54.672H21.058V79.368H24.838C26.098 79.368 26.98 79.032 27.484 78.36C28.072 77.604 28.366 76.26 28.366 74.328V59.46C28.366 57.696 28.072 56.478 27.484 55.806C26.98 55.05 25.972 54.672 24.46 54.672ZM24.082 18.258H21.058V38.418H23.956C26.476 38.418 27.736 36.864 27.736 33.756V22.668C27.736 21.156 27.484 20.064 26.98 19.392C26.476 18.636 25.51 18.258 24.082 18.258ZM53.7934 2.256H92.7274V21.66H74.3314V37.662H89.0734V57.57H74.3314V76.218H93.4834V96H53.7934V2.256ZM125.693 96L124.181 82.266H114.605L113.219 96H95.2011L107.171 2.256H132.749L145.853 96H125.693ZM119.393 35.268L116.495 63.744H122.291L119.393 35.268ZM146.817 73.698V2.256H168.237V72.69C168.237 75.882 169.371 77.478 171.639 77.478C173.907 77.478 175.041 75.882 175.041 72.69V2.256H196.461V73.698C196.461 80.922 194.445 86.718 190.413 91.086C186.381 95.37 180.753 97.512 173.529 97.512H169.497C161.937 97.512 156.267 95.412 152.487 91.212C148.707 87.012 146.817 81.174 146.817 73.698ZM199.823 2.256H243.923V21.66H232.205V96H211.541V21.66H199.823V2.256ZM294.578 2.256L280.844 60.594V96H260.18V60.972L245.06 2.256H265.85L271.016 33.126L275.93 2.256H294.578ZM344.548 2.256V96H323.758V2.256H344.548ZM370.778 0.995999H375.44C389.3 0.995999 396.23 7.38 396.23 20.148V31.362H376.196V21.282C376.196 18.594 375.146 17.25 373.046 17.25C370.946 17.25 369.896 18.636 369.896 21.408V23.802C369.896 25.818 370.19 27.498 370.778 28.842C371.45 30.186 372.668 31.698 374.432 33.378L385.142 42.954C389.846 47.238 393.08 51.228 394.844 54.924C396.608 58.62 397.49 63.03 397.49 68.154V72.816C397.49 80.376 395.558 86.34 391.694 90.708C387.83 95.076 382.034 97.26 374.306 97.26H369.77C355.238 97.26 347.972 90.372 347.972 76.596V61.602H368.384V74.58C368.384 77.856 369.56 79.494 371.912 79.494C374.18 79.494 375.314 77.646 375.314 73.95V71.43C375.314 68.574 375.02 66.39 374.432 64.878C373.844 63.282 372.5 61.518 370.4 59.586L359.564 49.884C352.424 43.5 348.854 35.436 348.854 25.692V21.282C348.854 14.898 350.702 9.942 354.398 6.414C358.178 2.802 363.638 0.995999 370.778 0.995999ZM456.443 96L454.931 82.266H445.355L443.969 96H425.951L437.921 2.256H463.499L476.603 96H456.443ZM450.143 35.268L447.245 63.744H453.041L450.143 35.268ZM534.338 2.256H553.868L558.908 59.838L563.318 2.256H583.226L571.256 96H547.694L543.662 46.356L539.63 96H515.564L503.72 2.256H525.014L529.298 60.342L534.338 2.256ZM585.356 2.256H624.29V21.66H605.894V37.662H620.636V57.57H605.894V76.218H625.046V96H585.356V2.256ZM657.256 96L655.744 82.266H646.168L644.782 96H626.764L638.734 2.256H664.312L677.416 96H657.256ZM650.956 35.268L648.058 63.744H653.854L650.956 35.268ZM709.982 59.838H700.028V96H679.364V2.256H709.352C715.484 2.256 719.936 3.81 722.708 6.918C725.564 10.026 726.992 14.772 726.992 21.156V40.56C726.992 46.692 725.48 51.438 722.456 54.798C719.516 58.158 715.358 59.838 709.982 59.838ZM700.028 18.636V42.576H702.548C703.976 42.576 704.942 42.24 705.446 41.568C705.95 40.812 706.202 39.636 706.202 38.04V23.298C706.202 21.702 705.95 20.526 705.446 19.77C704.942 19.014 703.976 18.636 702.548 18.636H700.028ZM781.197 27.456V71.934C781.197 79.998 779.139 86.256 775.023 90.708C770.907 95.16 765.237 97.386 758.013 97.386H753.981C746.421 97.386 740.625 95.202 736.593 90.834C732.561 86.382 730.545 80.082 730.545 71.934V27.456C730.545 9.816 738.315 0.995999 753.855 0.995999H757.887C773.427 0.995999 781.197 9.816 781.197 27.456ZM759.651 73.32V25.314C759.651 21.786 758.391 20.022 755.871 20.022C753.351 20.022 752.091 21.786 752.091 25.314V73.32C752.091 76.428 753.393 77.982 755.997 77.982C758.433 77.982 759.651 76.428 759.651 73.32ZM785.307 2.256H805.467L816.177 47.616V2.256H833.943V96H815.673L803.325 47.112V96H785.307V2.256Z" fill="black"/>
</svg>
