<svg width="1512" height="268" viewBox="0 0 1512 268" fill="none" xmlns="http://www.w3.org/2000/svg">
<path d="M4.06 129V2.52H46.56C54.04 2.52 59.5933 4.39 63.22 8.13C66.96 11.87 68.83 17.9333 68.83 26.32V40.26C68.83 45.5867 67.5267 49.8933 64.92 53.18C62.4267 56.4667 59.82 58.5633 57.1 59.47C66.5067 62.4167 71.21 69.6133 71.21 81.06V99.76C71.21 119.253 63.56 129 48.26 129H4.06ZM36.7 73.24H32.11V106.56H37.21C38.91 106.56 40.1 106.107 40.78 105.2C41.5733 104.18 41.97 102.367 41.97 99.76V79.7C41.97 77.32 41.5733 75.6767 40.78 74.77C40.1 73.75 38.74 73.24 36.7 73.24ZM36.19 24.11H32.11V51.31H36.02C39.42 51.31 41.12 49.2133 41.12 45.02V30.06C41.12 28.02 40.78 26.5467 40.1 25.64C39.42 24.62 38.1167 24.11 36.19 24.11ZM76.2768 2.52H128.807V28.7H103.987V50.29H123.877V77.15H103.987V102.31H129.827V129H76.2768V2.52ZM173.284 129L171.244 110.47H158.324L156.454 129H132.144L148.294 2.52H182.804L200.484 129H173.284ZM164.784 47.06L160.874 85.48H168.694L164.784 47.06ZM201.785 98.91V2.52H230.685V97.55C230.685 101.857 232.215 104.01 235.275 104.01C238.335 104.01 239.865 101.857 239.865 97.55V2.52H268.765V98.91C268.765 108.657 266.045 116.477 260.605 122.37C255.165 128.15 247.571 131.04 237.825 131.04H232.385C222.185 131.04 214.535 128.207 209.435 122.54C204.335 116.873 201.785 108.997 201.785 98.91ZM273.301 2.52H332.801V28.7H316.991V129H289.111V28.7H273.301V2.52ZM401.145 2.52L382.615 81.23V129H354.735V81.74L334.335 2.52H362.385L369.355 44.17L375.985 2.52H401.145ZM468.565 2.52V129H440.515V2.52H468.565ZM503.954 0.819999H510.244C528.944 0.819999 538.294 9.43333 538.294 26.66V41.79H511.264V28.19C511.264 24.5633 509.848 22.75 507.014 22.75C504.181 22.75 502.764 24.62 502.764 28.36V31.59C502.764 34.31 503.161 36.5767 503.954 38.39C504.861 40.2033 506.504 42.2433 508.884 44.51L523.334 57.43C529.681 63.21 534.044 68.5933 536.424 73.58C538.804 78.5667 539.994 84.5167 539.994 91.43V97.72C539.994 107.92 537.388 115.967 532.174 121.86C526.961 127.753 519.141 130.7 508.714 130.7H502.594C482.988 130.7 473.184 121.407 473.184 102.82V82.59H500.724V100.1C500.724 104.52 502.311 106.73 505.484 106.73C508.544 106.73 510.074 104.237 510.074 99.25V95.85C510.074 91.9967 509.678 89.05 508.884 87.01C508.091 84.8567 506.278 82.4767 503.444 79.87L488.824 66.78C479.191 58.1667 474.374 47.2867 474.374 34.14V28.19C474.374 19.5767 476.868 12.89 481.854 8.13C486.954 3.25666 494.321 0.819999 503.954 0.819999ZM638.128 129L636.088 110.47H623.168L621.298 129H596.988L613.138 2.52H647.648L665.328 129H638.128ZM629.628 47.06L625.718 85.48H633.538L629.628 47.06ZM705.144 129V2.52H758.014V28.53H732.854V50.29H752.234V76.98H732.854V129H705.144ZM790.801 24.28V53.35H794.371C796.185 53.35 797.488 52.8967 798.281 51.99C799.075 51.0833 799.471 49.4967 799.471 47.23V30.23C799.471 27.85 799.188 26.2633 798.621 25.47C798.055 24.6767 796.808 24.28 794.881 24.28H790.801ZM790.801 77.15V129H762.751V2.52H806.781C813.241 2.52 818.341 4.44666 822.081 8.29999C825.821 12.04 827.691 17.5367 827.691 24.79V41.45C827.691 50.97 824.008 57.3733 816.641 60.66C819.475 61.7933 822.025 63.7767 824.291 66.61C826.558 69.4433 827.691 72.9567 827.691 77.15V118.97C827.691 122.597 828.258 125.657 829.391 128.15V129H801.681C800.208 127.073 799.471 124.07 799.471 119.99V83.27C799.471 81.0033 799.131 79.4167 798.451 78.51C797.885 77.6033 796.638 77.15 794.711 77.15H790.801ZM833.64 2.52H886.17V28.7H861.35V50.29H881.24V77.15H861.35V102.31H887.19V129H833.64V2.52ZM891.746 2.52H944.276V28.7H919.456V50.29H939.346V77.15H919.456V102.31H945.296V129H891.746V2.52ZM949.851 129V2.52H989.971C1006.86 2.52 1015.3 11.8133 1015.3 30.4V99.93C1015.3 119.31 1006.91 129 990.141 129H949.851ZM977.561 25.98V104.69H981.471C983.398 104.69 984.758 104.123 985.551 102.99C986.344 101.743 986.741 99.76 986.741 97.04V33.29C986.741 30.57 986.401 28.7 985.721 27.68C985.041 26.5467 983.738 25.98 981.811 25.98H977.561ZM1089.24 36.52V96.53C1089.24 107.41 1086.46 115.853 1080.91 121.86C1075.35 127.867 1067.7 130.87 1057.96 130.87H1052.52C1042.32 130.87 1034.5 127.923 1029.06 122.03C1023.62 116.023 1020.9 107.523 1020.9 96.53V36.52C1020.9 12.72 1031.38 0.819999 1052.35 0.819999H1057.79C1078.75 0.819999 1089.24 12.72 1089.24 36.52ZM1060.17 98.4V33.63C1060.17 28.87 1058.47 26.49 1055.07 26.49C1051.67 26.49 1049.97 28.87 1049.97 33.63V98.4C1049.97 102.593 1051.72 104.69 1055.24 104.69C1058.52 104.69 1060.17 102.593 1060.17 98.4ZM1094.78 129V2.52H1128.27L1135.24 61.68L1142.55 2.52H1174.17V129H1150.03V59.98L1139.32 129H1129.29L1118.58 59.98V129H1094.78ZM1216.1 2.52H1275.6V28.7H1259.79V129H1231.91V28.7H1216.1V2.52ZM1347.39 36.52V96.53C1347.39 107.41 1344.62 115.853 1339.06 121.86C1333.51 127.867 1325.86 130.87 1316.11 130.87H1310.67C1300.47 130.87 1292.65 127.923 1287.21 122.03C1281.77 116.023 1279.05 107.523 1279.05 96.53V36.52C1279.05 12.72 1289.54 0.819999 1310.5 0.819999H1315.94C1336.91 0.819999 1347.39 12.72 1347.39 36.52ZM1318.32 98.4V33.63C1318.32 28.87 1316.62 26.49 1313.22 26.49C1309.82 26.49 1308.12 28.87 1308.12 33.63V98.4C1308.12 102.593 1309.88 104.69 1313.39 104.69C1316.68 104.69 1318.32 102.593 1318.32 98.4ZM1390.12 129V2.52H1432.62C1440.1 2.52 1445.66 4.39 1449.28 8.13C1453.02 11.87 1454.89 17.9333 1454.89 26.32V40.26C1454.89 45.5867 1453.59 49.8933 1450.98 53.18C1448.49 56.4667 1445.88 58.5633 1443.16 59.47C1452.57 62.4167 1457.27 69.6133 1457.27 81.06V99.76C1457.27 119.253 1449.62 129 1434.32 129H1390.12ZM1422.76 73.24H1418.17V106.56H1423.27C1424.97 106.56 1426.16 106.107 1426.84 105.2C1427.64 104.18 1428.03 102.367 1428.03 99.76V79.7C1428.03 77.32 1427.64 75.6767 1426.84 74.77C1426.16 73.75 1424.8 73.24 1422.76 73.24ZM1422.25 24.11H1418.17V51.31H1422.08C1425.48 51.31 1427.18 49.2133 1427.18 45.02V30.06C1427.18 28.02 1426.84 26.5467 1426.16 25.64C1425.48 24.62 1424.18 24.11 1422.25 24.11ZM1462.34 2.52H1514.87V28.7H1490.05V50.29H1509.94V77.15H1490.05V102.31H1515.89V129H1462.34V2.52ZM66.79 138.52L48.26 217.23V265H20.38V217.74L-0.02 138.52H28.03L35 180.17L41.63 138.52H66.79ZM133.652 172.52V232.53C133.652 243.41 130.875 251.853 125.322 257.86C119.768 263.867 112.118 266.87 102.372 266.87H96.9318C86.7318 266.87 78.9118 263.923 73.4718 258.03C68.0318 252.023 65.3118 243.523 65.3118 232.53V172.52C65.3118 148.72 75.7951 136.82 96.7618 136.82H102.202C123.168 136.82 133.652 148.72 133.652 172.52ZM104.582 234.4V169.63C104.582 164.87 102.882 162.49 99.4818 162.49C96.0818 162.49 94.3818 164.87 94.3818 169.63V234.4C94.3818 238.593 96.1385 240.69 99.6518 240.69C102.938 240.69 104.582 238.593 104.582 234.4ZM139.197 234.91V138.52H168.097V233.55C168.097 237.857 169.627 240.01 172.687 240.01C175.747 240.01 177.277 237.857 177.277 233.55V138.52H206.177V234.91C206.177 244.657 203.457 252.477 198.017 258.37C192.577 264.15 184.983 267.04 175.237 267.04H169.797C159.597 267.04 151.947 264.207 146.847 258.54C141.747 252.873 139.197 244.997 139.197 234.91ZM240.294 160.28V189.35H243.864C245.677 189.35 246.98 188.897 247.774 187.99C248.567 187.083 248.964 185.497 248.964 183.23V166.23C248.964 163.85 248.68 162.263 248.114 161.47C247.547 160.677 246.3 160.28 244.374 160.28H240.294ZM240.294 213.15V265H212.244V138.52H256.274C262.734 138.52 267.834 140.447 271.574 144.3C275.314 148.04 277.184 153.537 277.184 160.79V177.45C277.184 186.97 273.5 193.373 266.134 196.66C268.967 197.793 271.517 199.777 273.784 202.61C276.05 205.443 277.184 208.957 277.184 213.15V254.97C277.184 258.597 277.75 261.657 278.884 264.15V265H251.174C249.7 263.073 248.964 260.07 248.964 255.99V219.27C248.964 217.003 248.624 215.417 247.944 214.51C247.377 213.603 246.13 213.15 244.204 213.15H240.294ZM312.372 136.82H318.662C337.362 136.82 346.712 145.433 346.712 162.66V177.79H319.682V164.19C319.682 160.563 318.266 158.75 315.432 158.75C312.599 158.75 311.182 160.62 311.182 164.36V167.59C311.182 170.31 311.579 172.577 312.372 174.39C313.279 176.203 314.922 178.243 317.302 180.51L331.752 193.43C338.099 199.21 342.462 204.593 344.842 209.58C347.222 214.567 348.412 220.517 348.412 227.43V233.72C348.412 243.92 345.806 251.967 340.592 257.86C335.379 263.753 327.559 266.7 317.132 266.7H311.012C291.406 266.7 281.602 257.407 281.602 238.82V218.59H309.142V236.1C309.142 240.52 310.729 242.73 313.902 242.73C316.962 242.73 318.492 240.237 318.492 235.25V231.85C318.492 227.997 318.096 225.05 317.302 223.01C316.509 220.857 314.696 218.477 311.862 215.87L297.242 202.78C287.609 194.167 282.792 183.287 282.792 170.14V164.19C282.792 155.577 285.286 148.89 290.272 144.13C295.372 139.257 302.739 136.82 312.372 136.82ZM353.025 138.52H405.555V164.7H380.735V186.29H400.625V213.15H380.735V238.31H406.575V265H353.025V138.52ZM411.13 138.52H439.18V238.14H462.13V265H411.13V138.52ZM466.746 265V138.52H519.616V164.53H494.456V186.29H513.836V212.98H494.456V265H466.746Z" fill="black"/>
</svg>
