<svg width="390" height="46" viewBox="0 0 390 46" fill="none" xmlns="http://www.w3.org/2000/svg">
<path d="M0.0530001 45V1.476H14.678C17.252 1.476 19.163 2.1195 20.411 3.4065C21.698 4.6935 22.3415 6.78 22.3415 9.666V14.463C22.3415 16.296 21.893 17.778 20.996 18.909C20.138 20.04 19.241 20.7615 18.305 21.0735C21.542 22.0875 23.1605 24.564 23.1605 28.503V34.938C23.1605 41.646 20.528 45 15.263 45H0.0530001ZM11.285 25.812H9.7055V37.278H11.4605C12.0455 37.278 12.455 37.122 12.689 36.81C12.962 36.459 13.0985 35.835 13.0985 34.938V28.035C13.0985 27.216 12.962 26.6505 12.689 26.3385C12.455 25.9875 11.987 25.812 11.285 25.812ZM11.1095 8.9055H9.7055V18.2655H11.051C12.221 18.2655 12.806 17.544 12.806 16.101V10.953C12.806 10.251 12.689 9.744 12.455 9.432C12.221 9.081 11.7725 8.9055 11.1095 8.9055ZM24.9041 1.476H42.9806V10.485H34.4396V17.9145H41.2841V27.1575H34.4396V35.8155H43.3316V45H24.9041V1.476ZM58.2861 45L57.5841 38.6235H53.1381L52.4946 45H44.1291L49.6866 1.476H61.5621L67.6461 45H58.2861ZM55.3611 16.803L54.0156 30.024H56.7066L55.3611 16.803ZM68.0935 34.6455V1.476H78.0385V34.1775C78.0385 35.6595 78.565 36.4005 79.618 36.4005C80.671 36.4005 81.1975 35.6595 81.1975 34.1775V1.476H91.1425V34.6455C91.1425 37.9995 90.2065 40.6905 88.3345 42.7185C86.4625 44.7075 83.8495 45.702 80.4955 45.702H78.6235C75.1135 45.702 72.481 44.727 70.726 42.777C68.971 40.827 68.0935 38.1165 68.0935 34.6455ZM92.7037 1.476H113.179V10.485H107.738V45H98.1442V10.485H92.7037V1.476ZM136.697 1.476L130.321 28.5615V45H120.727V28.737L113.707 1.476H123.359L125.758 15.8085L128.039 1.476H136.697ZM153.499 1.476V45H143.846V1.476H153.499ZM165.677 0.891H167.842C174.277 0.891 177.494 3.855 177.494 9.783V14.9895H168.193V10.3095C168.193 9.0615 167.705 8.4375 166.73 8.4375C165.755 8.4375 165.268 9.081 165.268 10.368V11.4795C165.268 12.4155 165.404 13.1955 165.677 13.8195C165.989 14.4435 166.555 15.1455 167.374 15.9255L172.346 20.3715C174.53 22.3605 176.032 24.213 176.851 25.929C177.67 27.645 178.079 29.6925 178.079 32.0715V34.236C178.079 37.746 177.182 40.515 175.388 42.543C173.594 44.571 170.903 45.585 167.315 45.585H165.209C158.462 45.585 155.089 42.387 155.089 35.991V29.0295H164.566V35.055C164.566 36.576 165.112 37.3365 166.204 37.3365C167.257 37.3365 167.783 36.4785 167.783 34.7625V33.5925C167.783 32.2665 167.647 31.2525 167.374 30.5505C167.101 29.8095 166.477 28.9905 165.502 28.0935L160.471 23.589C157.156 20.625 155.498 16.881 155.498 12.357V10.3095C155.498 7.3455 156.356 5.0445 158.072 3.4065C159.827 1.7295 162.362 0.891 165.677 0.891ZM205.45 45L204.748 38.6235H200.302L199.659 45H191.293L196.851 1.476H208.726L214.81 45H205.45ZM202.525 16.803L201.18 30.024H203.871L202.525 16.803ZM228.511 45V1.476H246.705V10.4265H238.047V17.9145H244.716V27.099H238.047V45H228.511ZM257.988 8.964V18.9675H259.216C259.84 18.9675 260.289 18.8115 260.562 18.4995C260.835 18.1875 260.971 17.6415 260.971 16.8615V11.0115C260.971 10.1925 260.874 9.6465 260.679 9.3735C260.484 9.1005 260.055 8.964 259.392 8.964H257.988ZM257.988 27.1575V45H248.335V1.476H263.487C265.71 1.476 267.465 2.139 268.752 3.465C270.039 4.752 270.682 6.6435 270.682 9.1395V14.8725C270.682 18.1485 269.415 20.352 266.88 21.483C267.855 21.873 268.732 22.5555 269.512 23.5305C270.292 24.5055 270.682 25.7145 270.682 27.1575V41.5485C270.682 42.7965 270.877 43.8495 271.267 44.7075V45H261.732C261.225 44.337 260.971 43.3035 260.971 41.8995V29.2635C260.971 28.4835 260.854 27.9375 260.62 27.6255C260.425 27.3135 259.996 27.1575 259.333 27.1575H257.988ZM272.729 1.476H290.806V10.485H282.265V17.9145H289.109V27.1575H282.265V35.8155H291.157V45H272.729V1.476ZM292.724 1.476H310.801V10.485H302.26V17.9145H309.104V27.1575H302.26V35.8155H311.152V45H292.724V1.476ZM312.72 45V1.476H326.526C332.337 1.476 335.242 4.674 335.242 11.07V34.9965C335.242 41.6655 332.356 45 326.584 45H312.72ZM322.255 9.549V36.6345H323.601C324.264 36.6345 324.732 36.4395 325.005 36.0495C325.278 35.6205 325.414 34.938 325.414 34.002V12.0645C325.414 11.1285 325.297 10.485 325.063 10.134C324.829 9.744 324.381 9.549 323.718 9.549H322.255ZM360.685 13.176V33.8265C360.685 37.5705 359.729 40.476 357.818 42.543C355.907 44.61 353.275 45.6435 349.921 45.6435H348.049C344.539 45.6435 341.848 44.6295 339.976 42.6015C338.104 40.5345 337.168 37.6095 337.168 33.8265V13.176C337.168 4.986 340.775 0.891 347.99 0.891H349.862C357.077 0.891 360.685 4.986 360.685 13.176ZM350.681 34.47V12.1815C350.681 10.5435 350.096 9.7245 348.926 9.7245C347.756 9.7245 347.171 10.5435 347.171 12.1815V34.47C347.171 35.913 347.776 36.6345 348.985 36.6345C350.116 36.6345 350.681 35.913 350.681 34.47ZM362.593 45V1.476H374.118L376.516 21.834L379.032 1.476H389.913V45H381.606V21.249L377.92 45H374.469L370.783 21.249V45H362.593Z" fill="black"/>
</svg>
