<svg width="827" height="99" viewBox="0 0 827 99" fill="none" xmlns="http://www.w3.org/2000/svg">
<path d="M0.304 97V1.768H32.304C37.936 1.768 42.1173 3.176 44.848 5.992C47.664 8.808 49.072 13.3733 49.072 19.688V30.184C49.072 34.1947 48.0907 37.4373 46.128 39.912C44.2507 42.3867 42.288 43.9653 40.24 44.648C47.3227 46.8667 50.864 52.2853 50.864 60.904V74.984C50.864 89.6613 45.104 97 33.584 97H0.304ZM24.88 55.016H21.424V80.104H25.264C26.544 80.104 27.44 79.7627 27.952 79.08C28.5493 78.312 28.848 76.9467 28.848 74.984V59.88C28.848 58.088 28.5493 56.8507 27.952 56.168C27.44 55.4 26.416 55.016 24.88 55.016ZM24.496 18.024H21.424V38.504H24.368C26.928 38.504 28.208 36.9253 28.208 33.768V22.504C28.208 20.968 27.952 19.8587 27.44 19.176C26.928 18.408 25.9467 18.024 24.496 18.024ZM54.679 1.768H94.231V21.48H75.543V37.736H90.519V57.96H75.543V76.904H94.999V97H54.679V1.768ZM127.72 97L126.184 83.048H116.456L115.048 97H96.744L108.904 1.768H134.888L148.2 97H127.72ZM121.32 35.304L118.376 64.232H124.264L121.32 35.304ZM149.179 74.344V1.768H170.939V73.32C170.939 76.5627 172.091 78.184 174.395 78.184C176.699 78.184 177.851 76.5627 177.851 73.32V1.768H199.611V74.344C199.611 81.6827 197.563 87.5707 193.467 92.008C189.371 96.36 183.654 98.536 176.315 98.536H172.219C164.539 98.536 158.779 96.4027 154.939 92.136C151.099 87.8693 149.179 81.9387 149.179 74.344ZM203.027 1.768H247.827V21.48H235.923V97H214.931V21.48H203.027V1.768ZM299.286 1.768L285.334 61.032V97H264.342V61.416L248.982 1.768H270.102L275.35 33.128L280.342 1.768H299.286ZM434.049 1.768V97H412.929V1.768H434.049ZM460.695 0.487999H465.431C479.511 0.487999 486.551 6.97333 486.551 19.944V31.336H466.199V21.096C466.199 18.3653 465.132 17 462.999 17C460.866 17 459.799 18.408 459.799 21.224V23.656C459.799 25.704 460.098 27.4107 460.695 28.776C461.378 30.1413 462.615 31.6773 464.407 33.384L475.287 43.112C480.066 47.464 483.351 51.5173 485.143 55.272C486.935 59.0267 487.831 63.5067 487.831 68.712V73.448C487.831 81.128 485.868 87.1867 481.943 91.624C478.018 96.0613 472.13 98.28 464.279 98.28H459.671C444.908 98.28 437.527 91.2827 437.527 77.288V62.056H458.263V75.24C458.263 78.568 459.458 80.232 461.847 80.232C464.151 80.232 465.303 78.3547 465.303 74.6V72.04C465.303 69.1387 465.004 66.92 464.407 65.384C463.81 63.7627 462.444 61.9707 460.311 60.008L449.303 50.152C442.05 43.6667 438.423 35.4747 438.423 25.576V21.096C438.423 14.6107 440.3 9.576 444.055 5.992C447.895 2.32266 453.442 0.487999 460.695 0.487999ZM561.72 97L560.184 83.048H550.456L549.048 97H530.744L542.904 1.768H568.888L582.2 97H561.72ZM555.32 35.304L552.376 64.232H558.264L555.32 35.304ZM712.899 97L703.427 58.984V97H682.307V1.768H703.427V35.56L713.283 1.768H734.275L721.347 44.136L735.043 97H712.899ZM736.429 1.768H775.981V21.48H757.293V37.736H772.269V57.96H757.293V76.904H776.749V97H736.429V1.768ZM826.911 1.768L812.959 61.032V97H791.967V61.416L776.607 1.768H797.727L802.975 33.128L807.967 1.768H826.911Z" fill="white"/>
</svg>
