<svg width="459" height="19" viewBox="0 0 459 19" fill="none" xmlns="http://www.w3.org/2000/svg">
<path d="M0.453125 18V0.820312H5.73828C6.80859 0.820312 7.65625 0.988281 8.28125 1.32422C8.90625 1.65234 9.41797 2.16797 9.81641 2.87109C10.2148 3.57422 10.4141 4.35156 10.4141 5.20312C10.4141 5.99219 10.2422 6.70312 9.89844 7.33594C9.55469 7.96875 9.07031 8.47656 8.44531 8.85938C9.26562 9.15625 9.91016 9.66406 10.3789 10.3828C10.8555 11.0938 11.0938 11.9727 11.0938 13.0195C11.0938 14.0586 10.8789 14.9727 10.4492 15.7617C10.0273 16.543 9.46094 17.1133 8.75 17.4727C8.03906 17.8242 7.0625 18 5.82031 18H0.453125ZM2.31641 8.03906H5.36328C6.16016 8.03906 6.72656 7.98438 7.0625 7.875C7.54688 7.71094 7.91797 7.4375 8.17578 7.05469C8.44141 6.66406 8.57422 6.13672 8.57422 5.47266C8.57422 4.85547 8.45312 4.34375 8.21094 3.9375C7.97656 3.52344 7.66016 3.23828 7.26172 3.08203C6.87109 2.92578 6.16406 2.84766 5.14062 2.84766H2.31641V8.03906ZM2.31641 15.9727H5.82031C6.59375 15.9727 7.16406 15.9023 7.53125 15.7617C8.0625 15.5586 8.46484 15.2266 8.73828 14.7656C9.01953 14.2969 9.16016 13.7109 9.16016 13.0078C9.16016 12.3594 9.02734 11.8125 8.76172 11.3672C8.49609 10.9141 8.13672 10.5859 7.68359 10.3828C7.23828 10.1719 6.53516 10.0664 5.57422 10.0664H2.31641V15.9727ZM22.8477 0.820312H24.7227V10.7461C24.7227 12.4102 24.5586 13.7773 24.2305 14.8477C23.9102 15.9102 23.3203 16.75 22.4609 17.3672C21.6094 17.9844 20.5234 18.293 19.2031 18.293C17.3438 18.293 15.9492 17.7383 15.0195 16.6289C14.0977 15.5195 13.6367 13.5586 13.6367 10.7461V0.820312H15.5V10.7344C15.5 12.2891 15.6211 13.4141 15.8633 14.1094C16.1055 14.8047 16.5 15.3359 17.0469 15.7031C17.6016 16.0625 18.2734 16.2422 19.0625 16.2422C20.3906 16.2422 21.3516 15.8672 21.9453 15.1172C22.5469 14.3672 22.8477 12.9062 22.8477 10.7344V0.820312ZM31.4609 18V2.84766H26.8203V0.820312H37.9883V2.84766H33.3242V18H31.4609ZM48.6172 18V10.7227L43.1914 0.820312H45.4648L48.2305 6C48.7773 7.02344 49.2578 7.99219 49.6719 8.90625C50.0859 8.00781 50.5977 6.99609 51.207 5.87109L53.9375 0.820312H56.1055L50.4805 10.7227V18H48.6172ZM57.2539 9.63281C57.2539 6.70312 57.8984 4.45312 59.1875 2.88281C60.4766 1.30469 62.082 0.515625 64.0039 0.515625C65.2461 0.515625 66.3789 0.867188 67.4023 1.57031C68.4258 2.27344 69.2344 3.29687 69.8281 4.64062C70.4297 5.97656 70.7305 7.57031 70.7305 9.42188C70.7305 11.9688 70.1523 14.043 68.9961 15.6445C67.7227 17.4102 66.0547 18.293 63.9922 18.293C61.9141 18.293 60.2422 17.3867 58.9766 15.5742C57.8281 13.9336 57.2539 11.9531 57.2539 9.63281ZM59.1758 9.66797C59.1758 11.7852 59.6406 13.4297 60.5703 14.6016C61.5078 15.7656 62.6445 16.3477 63.9805 16.3477C65.3477 16.3477 66.4922 15.7578 67.4141 14.5781C68.3438 13.3984 68.8086 11.6641 68.8086 9.375C68.8086 7.89844 68.5703 6.57812 68.0938 5.41406C67.7266 4.52344 67.1719 3.8125 66.4297 3.28125C65.6953 2.74219 64.8906 2.47266 64.0156 2.47266C62.6094 2.47266 61.4492 3.05859 60.5352 4.23047C59.6289 5.40234 59.1758 7.21484 59.1758 9.66797ZM82.3086 0.820312H84.1836V10.7461C84.1836 12.4102 84.0195 13.7773 83.6914 14.8477C83.3711 15.9102 82.7812 16.75 81.9219 17.3672C81.0703 17.9844 79.9844 18.293 78.6641 18.293C76.8047 18.293 75.4102 17.7383 74.4805 16.6289C73.5586 15.5195 73.0977 13.5586 73.0977 10.7461V0.820312H74.9609V10.7344C74.9609 12.2891 75.082 13.4141 75.3242 14.1094C75.5664 14.8047 75.9609 15.3359 76.5078 15.7031C77.0625 16.0625 77.7344 16.2422 78.5234 16.2422C79.8516 16.2422 80.8125 15.8672 81.4062 15.1172C82.0078 14.3672 82.3086 12.9062 82.3086 10.7344V0.820312ZM92.75 18V0.820312H97.6133C98.8164 0.820312 99.7305 0.925781 100.355 1.13672C101.176 1.41016 101.887 1.91016 102.488 2.63672C103.09 3.36328 103.559 4.28125 103.895 5.39062C104.23 6.49219 104.398 7.80078 104.398 9.31641C104.398 11.2617 104.113 12.9141 103.543 14.2734C102.973 15.625 102.238 16.5859 101.34 17.1562C100.449 17.7188 99.2812 18 97.8359 18H92.75ZM94.6133 15.9727H97.6133C98.8242 15.9727 99.7422 15.7773 100.367 15.3867C100.992 14.9883 101.473 14.3516 101.809 13.4766C102.254 12.3125 102.477 10.918 102.477 9.29297C102.477 7.55078 102.238 6.18359 101.762 5.19141C101.293 4.19141 100.688 3.52344 99.9453 3.1875C99.4453 2.96094 98.6523 2.84766 97.5664 2.84766H94.6133V15.9727ZM107.035 18V0.820312H117.219V2.84766H108.898V8.10938H116.691V10.125H108.898V15.9727H117.547V18H107.035ZM130.121 11.9766L131.996 12.5508C131.582 14.4805 130.855 15.9219 129.816 16.875C128.785 17.8203 127.527 18.293 126.043 18.293C124.738 18.293 123.621 17.9766 122.691 17.3438C121.77 16.7031 121.012 15.6797 120.418 14.2734C119.832 12.8672 119.539 11.207 119.539 9.29297C119.539 7.40234 119.832 5.80469 120.418 4.5C121.012 3.1875 121.812 2.19922 122.82 1.53516C123.828 0.863281 124.953 0.527344 126.195 0.527344C127.555 0.527344 128.723 0.953125 129.699 1.80469C130.676 2.64844 131.359 3.89062 131.75 5.53125L129.922 6.05859C129.297 3.66797 128.043 2.47266 126.16 2.47266C125.223 2.47266 124.41 2.71484 123.723 3.19922C123.035 3.67578 122.484 4.42187 122.07 5.4375C121.664 6.45312 121.461 7.73828 121.461 9.29297C121.461 11.6445 121.875 13.4102 122.703 14.5898C123.531 15.7617 124.633 16.3477 126.008 16.3477C127.023 16.3477 127.898 15.9883 128.633 15.2695C129.375 14.543 129.871 13.4453 130.121 11.9766ZM134.68 18V0.820312H136.543V18H134.68ZM139.766 18V0.820312H144.629C145.832 0.820312 146.746 0.925781 147.371 1.13672C148.191 1.41016 148.902 1.91016 149.504 2.63672C150.105 3.36328 150.574 4.28125 150.91 5.39062C151.246 6.49219 151.414 7.80078 151.414 9.31641C151.414 11.2617 151.129 12.9141 150.559 14.2734C149.988 15.625 149.254 16.5859 148.355 17.1562C147.465 17.7188 146.297 18 144.852 18H139.766ZM141.629 15.9727H144.629C145.84 15.9727 146.758 15.7773 147.383 15.3867C148.008 14.9883 148.488 14.3516 148.824 13.4766C149.27 12.3125 149.492 10.918 149.492 9.29297C149.492 7.55078 149.254 6.18359 148.777 5.19141C148.309 4.19141 147.703 3.52344 146.961 3.1875C146.461 2.96094 145.668 2.84766 144.582 2.84766H141.629V15.9727ZM154.051 18V0.820312H164.234V2.84766H155.914V8.10938H163.707V10.125H155.914V15.9727H164.562V18H154.051ZM175.109 18L171.371 0.820312H173.281L175.426 12.082C175.652 13.2383 175.852 14.4102 176.023 15.5977L176.656 12.4219L179.34 0.820312H181.59L183.605 9.51562C184.098 11.6328 184.465 13.6602 184.707 15.5977C184.887 14.4805 185.117 13.2344 185.398 11.8594L187.613 0.820312H189.488L185.621 18H183.828L180.852 4.91016L180.406 2.89453C180.273 3.64453 180.137 4.31641 179.996 4.91016L177.008 18H175.109ZM191.199 18V0.820312H193.062V7.875H200.387V0.820312H202.25V18H200.387V9.90234H193.062V18H191.199ZM205.766 18V0.820312H207.629V18H205.766ZM220.895 11.9766L222.77 12.5508C222.355 14.4805 221.629 15.9219 220.59 16.875C219.559 17.8203 218.301 18.293 216.816 18.293C215.512 18.293 214.395 17.9766 213.465 17.3438C212.543 16.7031 211.785 15.6797 211.191 14.2734C210.605 12.8672 210.312 11.207 210.312 9.29297C210.312 7.40234 210.605 5.80469 211.191 4.5C211.785 3.1875 212.586 2.19922 213.594 1.53516C214.602 0.863281 215.727 0.527344 216.969 0.527344C218.328 0.527344 219.496 0.953125 220.473 1.80469C221.449 2.64844 222.133 3.89062 222.523 5.53125L220.695 6.05859C220.07 3.66797 218.816 2.47266 216.934 2.47266C215.996 2.47266 215.184 2.71484 214.496 3.19922C213.809 3.67578 213.258 4.42187 212.844 5.4375C212.438 6.45312 212.234 7.73828 212.234 9.29297C212.234 11.6445 212.648 13.4102 213.477 14.5898C214.305 15.7617 215.406 16.3477 216.781 16.3477C217.797 16.3477 218.672 15.9883 219.406 15.2695C220.148 14.543 220.645 13.4453 220.895 11.9766ZM225.09 18V0.820312H226.953V7.875H234.277V0.820312H236.141V18H234.277V9.90234H226.953V18H225.09ZM244.742 18V0.820312H249.605C250.809 0.820312 251.723 0.925781 252.348 1.13672C253.168 1.41016 253.879 1.91016 254.48 2.63672C255.082 3.36328 255.551 4.28125 255.887 5.39062C256.223 6.49219 256.391 7.80078 256.391 9.31641C256.391 11.2617 256.105 12.9141 255.535 14.2734C254.965 15.625 254.23 16.5859 253.332 17.1562C252.441 17.7188 251.273 18 249.828 18H244.742ZM246.605 15.9727H249.605C250.816 15.9727 251.734 15.7773 252.359 15.3867C252.984 14.9883 253.465 14.3516 253.801 13.4766C254.246 12.3125 254.469 10.918 254.469 9.29297C254.469 7.55078 254.23 6.18359 253.754 5.19141C253.285 4.19141 252.68 3.52344 251.938 3.1875C251.438 2.96094 250.645 2.84766 249.559 2.84766H246.605V15.9727ZM258.465 9.63281C258.465 6.70312 259.109 4.45312 260.398 2.88281C261.688 1.30469 263.293 0.515625 265.215 0.515625C266.457 0.515625 267.59 0.867188 268.613 1.57031C269.637 2.27344 270.445 3.29687 271.039 4.64062C271.641 5.97656 271.941 7.57031 271.941 9.42188C271.941 11.9688 271.363 14.043 270.207 15.6445C268.934 17.4102 267.266 18.293 265.203 18.293C263.125 18.293 261.453 17.3867 260.188 15.5742C259.039 13.9336 258.465 11.9531 258.465 9.63281ZM260.387 9.66797C260.387 11.7852 260.852 13.4297 261.781 14.6016C262.719 15.7656 263.855 16.3477 265.191 16.3477C266.559 16.3477 267.703 15.7578 268.625 14.5781C269.555 13.3984 270.02 11.6641 270.02 9.375C270.02 7.89844 269.781 6.57812 269.305 5.41406C268.938 4.52344 268.383 3.8125 267.641 3.28125C266.906 2.74219 266.102 2.47266 265.227 2.47266C263.82 2.47266 262.66 3.05859 261.746 4.23047C260.84 5.40234 260.387 7.21484 260.387 9.66797ZM273.793 9.63281C273.793 6.70312 274.438 4.45312 275.727 2.88281C277.016 1.30469 278.621 0.515625 280.543 0.515625C281.785 0.515625 282.918 0.867188 283.941 1.57031C284.965 2.27344 285.773 3.29687 286.367 4.64062C286.969 5.97656 287.27 7.57031 287.27 9.42188C287.27 11.9688 286.691 14.043 285.535 15.6445C284.262 17.4102 282.594 18.293 280.531 18.293C278.453 18.293 276.781 17.3867 275.516 15.5742C274.367 13.9336 273.793 11.9531 273.793 9.63281ZM275.715 9.66797C275.715 11.7852 276.18 13.4297 277.109 14.6016C278.047 15.7656 279.184 16.3477 280.52 16.3477C281.887 16.3477 283.031 15.7578 283.953 14.5781C284.883 13.3984 285.348 11.6641 285.348 9.375C285.348 7.89844 285.109 6.57812 284.633 5.41406C284.266 4.52344 283.711 3.8125 282.969 3.28125C282.234 2.74219 281.43 2.47266 280.555 2.47266C279.148 2.47266 277.988 3.05859 277.074 4.23047C276.168 5.40234 275.715 7.21484 275.715 9.66797ZM289.637 18V0.820312H295.883C297.188 0.820312 298.148 0.980469 298.766 1.30078C299.391 1.62109 299.902 2.15625 300.301 2.90625C300.699 3.64844 300.898 4.51172 300.898 5.49609C300.898 6.79297 300.559 7.84375 299.879 8.64844C299.207 9.45312 298.227 9.96484 296.938 10.1836C297.461 10.4961 297.859 10.8125 298.133 11.1328C298.688 11.7891 299.176 12.5195 299.598 13.3242L302.059 18H299.715L297.84 14.4258C297.113 13.0273 296.562 12.0859 296.188 11.6016C295.82 11.1172 295.461 10.793 295.109 10.6289C294.766 10.457 294.281 10.3711 293.656 10.3711H291.5V18H289.637ZM291.5 8.40234H295.508C296.383 8.40234 297.047 8.29688 297.5 8.08594C297.953 7.875 298.312 7.54297 298.578 7.08984C298.844 6.63672 298.977 6.10938 298.977 5.50781C298.977 4.64062 298.723 3.96094 298.215 3.46875C297.707 2.96875 296.953 2.71875 295.953 2.71875H291.5V8.40234ZM309.688 18V0.820312H311.551V18H309.688ZM318.43 18V2.84766H313.789V0.820312H324.957V2.84766H320.293V18H318.43ZM341.973 11.9766L343.848 12.5508C343.434 14.4805 342.707 15.9219 341.668 16.875C340.637 17.8203 339.379 18.293 337.895 18.293C336.59 18.293 335.473 17.9766 334.543 17.3438C333.621 16.7031 332.863 15.6797 332.27 14.2734C331.684 12.8672 331.391 11.207 331.391 9.29297C331.391 7.40234 331.684 5.80469 332.27 4.5C332.863 3.1875 333.664 2.19922 334.672 1.53516C335.68 0.863281 336.805 0.527344 338.047 0.527344C339.406 0.527344 340.574 0.953125 341.551 1.80469C342.527 2.64844 343.211 3.89062 343.602 5.53125L341.773 6.05859C341.148 3.66797 339.895 2.47266 338.012 2.47266C337.074 2.47266 336.262 2.71484 335.574 3.19922C334.887 3.67578 334.336 4.42187 333.922 5.4375C333.516 6.45312 333.312 7.73828 333.312 9.29297C333.312 11.6445 333.727 13.4102 334.555 14.5898C335.383 15.7617 336.484 16.3477 337.859 16.3477C338.875 16.3477 339.75 15.9883 340.484 15.2695C341.227 14.543 341.723 13.4453 341.973 11.9766ZM345.652 9.63281C345.652 6.70312 346.297 4.45312 347.586 2.88281C348.875 1.30469 350.48 0.515625 352.402 0.515625C353.645 0.515625 354.777 0.867188 355.801 1.57031C356.824 2.27344 357.633 3.29687 358.227 4.64062C358.828 5.97656 359.129 7.57031 359.129 9.42188C359.129 11.9688 358.551 14.043 357.395 15.6445C356.121 17.4102 354.453 18.293 352.391 18.293C350.312 18.293 348.641 17.3867 347.375 15.5742C346.227 13.9336 345.652 11.9531 345.652 9.63281ZM347.574 9.66797C347.574 11.7852 348.039 13.4297 348.969 14.6016C349.906 15.7656 351.043 16.3477 352.379 16.3477C353.746 16.3477 354.891 15.7578 355.812 14.5781C356.742 13.3984 357.207 11.6641 357.207 9.375C357.207 7.89844 356.969 6.57812 356.492 5.41406C356.125 4.52344 355.57 3.8125 354.828 3.28125C354.094 2.74219 353.289 2.47266 352.414 2.47266C351.008 2.47266 349.848 3.05859 348.934 4.23047C348.027 5.40234 347.574 7.21484 347.574 9.66797ZM370.707 0.820312H372.582V10.7461C372.582 12.4102 372.418 13.7773 372.09 14.8477C371.77 15.9102 371.18 16.75 370.32 17.3672C369.469 17.9844 368.383 18.293 367.062 18.293C365.203 18.293 363.809 17.7383 362.879 16.6289C361.957 15.5195 361.496 13.5586 361.496 10.7461V0.820312H363.359V10.7344C363.359 12.2891 363.48 13.4141 363.723 14.1094C363.965 14.8047 364.359 15.3359 364.906 15.7031C365.461 16.0625 366.133 16.2422 366.922 16.2422C368.25 16.2422 369.211 15.8672 369.805 15.1172C370.406 14.3672 370.707 12.9062 370.707 10.7344V0.820312ZM375.594 18V0.820312H377.457V15.9727H384.395V18H375.594ZM386.609 18V0.820312H391.473C392.676 0.820312 393.59 0.925781 394.215 1.13672C395.035 1.41016 395.746 1.91016 396.348 2.63672C396.949 3.36328 397.418 4.28125 397.754 5.39062C398.09 6.49219 398.258 7.80078 398.258 9.31641C398.258 11.2617 397.973 12.9141 397.402 14.2734C396.832 15.625 396.098 16.5859 395.199 17.1562C394.309 17.7188 393.141 18 391.695 18H386.609ZM388.473 15.9727H391.473C392.684 15.9727 393.602 15.7773 394.227 15.3867C394.852 14.9883 395.332 14.3516 395.668 13.4766C396.113 12.3125 396.336 10.918 396.336 9.29297C396.336 7.55078 396.098 6.18359 395.621 5.19141C395.152 4.19141 394.547 3.52344 393.805 3.1875C393.305 2.96094 392.512 2.84766 391.426 2.84766H388.473V15.9727ZM405.816 9.63281C405.816 6.70312 406.461 4.45312 407.75 2.88281C409.039 1.30469 410.645 0.515625 412.566 0.515625C413.809 0.515625 414.941 0.867188 415.965 1.57031C416.988 2.27344 417.797 3.29687 418.391 4.64062C418.992 5.97656 419.293 7.57031 419.293 9.42188C419.293 11.9688 418.715 14.043 417.559 15.6445C416.285 17.4102 414.617 18.293 412.555 18.293C410.477 18.293 408.805 17.3867 407.539 15.5742C406.391 13.9336 405.816 11.9531 405.816 9.63281ZM407.738 9.66797C407.738 11.7852 408.203 13.4297 409.133 14.6016C410.07 15.7656 411.207 16.3477 412.543 16.3477C413.91 16.3477 415.055 15.7578 415.977 14.5781C416.906 13.3984 417.371 11.6641 417.371 9.375C417.371 7.89844 417.133 6.57812 416.656 5.41406C416.289 4.52344 415.734 3.8125 414.992 3.28125C414.258 2.74219 413.453 2.47266 412.578 2.47266C411.172 2.47266 410.012 3.05859 409.098 4.23047C408.191 5.40234 407.738 7.21484 407.738 9.66797ZM421.672 18V0.820312H426.98C428.23 0.820312 429.152 0.929687 429.746 1.14844C430.559 1.44531 431.207 1.99609 431.691 2.80078C432.176 3.60547 432.418 4.59375 432.418 5.76562C432.418 7.3125 432.023 8.57422 431.234 9.55078C430.445 10.5273 429.082 11.0156 427.145 11.0156H423.535V18H421.672ZM423.535 8.98828H427.18C428.328 8.98828 429.168 8.73047 429.699 8.21484C430.23 7.69141 430.496 6.90625 430.496 5.85938C430.496 5.17969 430.363 4.59766 430.098 4.11328C429.84 3.62891 429.523 3.29687 429.148 3.11719C428.781 2.9375 428.113 2.84766 427.145 2.84766H423.535V8.98828ZM434.832 18V0.820312H445.016V2.84766H436.695V8.10938H444.488V10.125H436.695V15.9727H445.344V18H434.832ZM447.863 18V0.820312H449.773L457.18 14.3086V0.820312H458.961V18H457.051L449.656 4.5V18H447.863Z" fill="black"/>
</svg>
