<svg width="100" height="20" viewBox="0 0 100 20" fill="none" xmlns="http://www.w3.org/2000/svg">
<path d="M10.9891 0.0513389C10.9891 0.0513389 10.9891 0.24386 10.9891 0.474885V3.38195C10.9891 3.38195 10.9891 3.51672 10.9891 3.53597C10.9274 3.55845 10.8584 3.55845 10.7966 3.53597H3.89107V8.32974H9.47112C9.47112 8.32974 9.62077 8.32974 9.64215 8.32974C9.65392 8.35403 9.66 8.38025 9.66 8.40675C9.66 8.43325 9.65392 8.45947 9.64215 8.48376V8.98431C9.64215 9.29235 9.64215 9.65814 9.64215 10.0432C9.64215 10.4282 9.64215 10.7748 9.64215 11.102V11.6026C9.64215 11.6026 9.64215 11.7374 9.64215 11.7566C9.57976 11.7757 9.51213 11.7757 9.44974 11.7566H3.89107V19.5922C3.934 19.6913 3.934 19.8012 3.89107 19.9003C3.84121 19.9381 3.78315 19.9662 3.72058 19.9828C3.65801 19.9994 3.5923 20.004 3.52762 19.9965H0.470349C0.256554 19.9965 0.128277 19.9965 0.106897 19.9003C0.085518 19.804 0.106897 19.727 0.106897 19.496V0.474885C0 0.282364 0 0.166852 0 0.0513389C0 -0.0641737 0.256554 0.0513389 0.470349 0.0513389H10.6897C10.7334 0.0231323 10.7857 0.00795999 10.8394 0.00795999C10.8931 0.00795999 10.9454 0.0231323 10.9891 0.0513389Z" fill="white"/>
<path d="M17.2947 0C17.3959 0.00317366 17.4914 0.0377221 17.561 0.0962464C17.5892 0.171605 17.5892 0.25188 17.561 0.327238V19.7305C17.561 19.9038 17.4157 20 17.1737 20H13.5672C13.3251 20 13.2041 19.9038 13.2041 19.7305V0.327238C13.1741 0.250672 13.1827 0.167799 13.2283 0.0962464C13.3063 0.0725492 13.3924 0.0725492 13.4704 0.0962464L17.2947 0Z" fill="white"/>
<path d="M19.1916 0.000141364H24.6966C25.5081 -0.00544131 26.309 0.154405 27.0292 0.465705C27.765 0.779555 28.416 1.21525 28.9419 1.74601C29.5002 2.32662 29.9342 2.98282 30.2248 3.68586C30.5473 4.41873 30.7055 5.19457 30.6914 5.97488C30.7347 7.1822 30.3798 8.37635 29.665 9.42782C29.0184 10.3814 27.9972 11.1211 26.7726 11.5229L27.589 13.1717L28.3588 14.7818C28.6542 15.3638 28.9341 15.9457 29.1985 16.5277C29.4784 17.0902 29.735 17.6334 29.9683 18.1377C30.2015 18.6421 30.4115 19.0107 30.5514 19.3017C30.6309 19.4538 30.701 19.6091 30.7613 19.7672C30.7724 19.7989 30.7724 19.8325 30.7613 19.8642C30.7613 19.8642 30.7613 19.9612 30.5048 19.9612H26.4227C26.4227 19.9612 26.2361 19.9612 26.2127 19.9612C26.1894 19.9612 26.2127 19.9612 26.2127 19.8254C25.9095 19.1853 25.6296 18.6227 25.3963 18.1571C25.1631 17.6916 24.9065 17.1678 24.6499 16.5859C24.3933 16.0039 24.1134 15.4995 23.8801 14.9952C23.6469 14.4908 23.4136 14.0835 23.2503 13.7343C23.0871 13.3851 22.9704 13.1717 22.9471 13.1135V19.3986C22.9602 19.5018 22.9602 19.6059 22.9471 19.709C22.9625 19.7398 22.9704 19.7727 22.9704 19.806C22.9704 19.8393 22.9625 19.8723 22.9471 19.903C22.9471 19.903 22.6905 20 22.3639 20H19.1449C18.8883 20 18.7251 20 18.7017 19.903C18.6784 19.806 18.7017 19.7478 18.7017 19.5344V0.562698C18.6749 0.40831 18.6749 0.251522 18.7017 0.0971339C18.7017 0.0971339 18.9117 0.000141364 19.1916 0.000141364ZM22.9004 8.3415H24.6266C24.9193 8.34571 25.2058 8.27083 25.443 8.12811C25.6773 7.98527 25.8689 7.7994 26.0028 7.58496C26.186 7.35793 26.3275 7.10949 26.4227 6.84781C26.4683 6.57756 26.4683 6.30333 26.4227 6.03308C26.4596 5.74291 26.4596 5.45031 26.4227 5.16014C26.3382 4.886 26.221 4.61956 26.0728 4.36481C25.8946 4.16247 25.6632 3.99661 25.3963 3.87984C25.1607 3.73449 24.8732 3.65933 24.5799 3.66646H22.9004V8.3415Z" fill="white"/>
<path d="M32.3155 3.59484C32.573 2.89987 32.9657 2.25236 33.4751 1.68301C33.9328 1.17175 34.4992 0.74915 35.1407 0.440322C35.7934 0.140144 36.5172 -0.0108091 37.249 0.000602062C40.2218 0.000602062 42.0561 1.60654 42.7518 4.66546C42.7636 4.72874 42.7636 4.79337 42.7518 4.85664C42.7759 4.9185 42.7759 4.98597 42.7518 5.04783C42.7518 5.04783 42.6253 5.16254 42.4566 5.16254H39.252C39.0622 5.16254 38.9568 5.16254 38.8935 5.02871C38.8282 4.92025 38.7786 4.80458 38.7459 4.68458C38.7247 4.38314 38.5732 4.10148 38.3243 3.90073C38.0861 3.69332 37.769 3.57695 37.4388 3.57572C37.2174 3.56776 36.9966 3.60097 36.7899 3.67331C36.5832 3.74564 36.3951 3.85557 36.237 3.99632C35.9948 4.25983 35.8139 4.56505 35.7052 4.8936C35.5965 5.22216 35.5623 5.56727 35.6045 5.90815C35.5686 6.50711 35.738 7.10148 36.0894 7.60968C36.2345 7.81085 36.4358 7.97349 36.6729 8.08098C36.91 8.18846 37.1743 8.23694 37.4388 8.22146H37.6496C38.4871 8.19713 39.3166 8.37529 40.0531 8.73765C40.6869 9.07443 41.2333 9.53084 41.6555 10.0759C42.0837 10.6577 42.391 11.3057 42.5621 11.9878C42.7328 12.6788 42.8316 13.3829 42.8572 14.0908C42.8576 14.8074 42.7221 15.5188 42.4566 16.1938C42.2149 16.891 41.8285 17.5399 41.3181 18.1056C40.8208 18.6619 40.2129 19.1288 39.526 19.4821C38.7842 19.8316 37.9584 20.0089 37.1225 19.9983C36.4997 20.0143 35.8798 19.9159 35.3 19.7089C34.7203 19.5019 34.1927 19.1906 33.7492 18.7939C32.7812 17.8476 32.1622 16.6515 31.9782 15.3717V15.0849C31.9664 15.0216 31.9664 14.957 31.9782 14.8937C32.0256 14.8527 32.082 14.8213 32.1438 14.8016C32.2056 14.7818 32.2713 14.7741 32.3366 14.779H35.5413C35.5963 14.7733 35.6521 14.7787 35.7047 14.7946C35.7573 14.8106 35.8053 14.8368 35.8455 14.8715C35.8857 14.9061 35.9171 14.9483 35.9374 14.9951C35.9576 15.0419 35.9664 15.0921 35.9629 15.1423C35.9504 15.3109 35.9777 15.4801 36.0432 15.6383C36.1086 15.7966 36.2107 15.9404 36.3424 16.06C36.4854 16.1751 36.6523 16.2632 36.8333 16.319C37.0143 16.3749 37.2059 16.3973 37.3966 16.385C37.6638 16.3858 37.9274 16.329 38.1657 16.2193C38.4039 16.1096 38.61 15.9501 38.767 15.7541C39.1295 15.2567 39.3068 14.6671 39.273 14.0717C39.2822 13.69 39.2253 13.3094 39.1044 12.9437C39.0055 12.687 38.8474 12.4523 38.6405 12.2554C38.4603 12.0998 38.2443 11.9823 38.008 11.9113C37.7916 11.8399 37.5636 11.8011 37.3334 11.7966H37.0171C36.4488 11.8208 35.8813 11.7361 35.3515 11.548C34.7996 11.3133 34.2995 10.9894 33.8757 10.5921C33.2094 9.99408 32.6981 9.26923 32.3787 8.47C32.0095 7.62539 31.8372 6.72056 31.8727 5.81256C31.8901 5.05674 32.0395 4.30821 32.3155 3.59484Z" fill="white"/>
<path d="M53.5112 0C53.724 0 53.8304 0.0962293 53.8304 0.307934V3.19481C53.8505 3.25768 53.8505 3.3244 53.8304 3.38727C53.8029 3.41925 53.7673 3.44471 53.7265 3.46148C53.6857 3.47824 53.6411 3.48579 53.5964 3.4835H50.2555V19.7078C50.2629 19.7472 50.2598 19.7876 50.2464 19.8257C50.233 19.8638 50.2097 19.8984 50.1784 19.9267C50.1471 19.955 50.1088 19.9761 50.0667 19.9882C50.0246 20.0003 49.9799 20.0032 49.9363 19.9964H46.6593C46.4252 19.9964 46.3188 19.9002 46.3188 19.7078V3.4835H43.0843C43.0423 3.48845 42.9996 3.48194 42.9617 3.46479C42.9237 3.44765 42.8924 3.42065 42.8715 3.38727C42.8514 3.3244 42.8514 3.25768 42.8715 3.19481V0.307934C42.8715 0.0962293 42.9779 0 43.1694 0H53.5112Z" fill="white"/>
<path d="M59.8954 0C60.1311 0 60.2725 0 60.3197 0C60.3668 0 60.3197 0.174216 60.3197 0.387146V16.5118H67.6975C67.9096 16.5118 68.051 16.5118 68.0982 16.5118C68.1432 16.625 68.1432 16.747 68.0982 16.8602V19.6477C68.1343 19.7553 68.1343 19.869 68.0982 19.9767C67.9833 20.0078 67.8594 20.0078 67.7446 19.9767H56.5954C56.3597 19.9767 56.2419 19.9767 56.1947 19.8799C56.1476 19.7832 56.0769 19.7251 56.0769 19.4734V0.464575C56.033 0.34463 56.033 0.216732 56.0769 0.0967865C56.2094 0.0776131 56.345 0.0776131 56.4776 0.0967865L59.8954 0Z" fill="white"/>
<path d="M73.3385 0C73.44 0.00317366 73.536 0.0377221 73.6058 0.0962464C73.6342 0.171605 73.6342 0.25188 73.6058 0.327238V19.7305C73.6058 19.9038 73.6058 20 73.217 20H69.6203C69.353 20 69.2314 19.9038 69.2314 19.7305V0.327238C69.2401 0.241999 69.2826 0.161125 69.353 0.0962464C69.4393 0.0712218 69.534 0.0712218 69.6203 0.0962464L73.3385 0Z" fill="white"/>
<path d="M78.657 0.0269275C78.7487 0.106597 78.8114 0.20723 78.8378 0.316703L82.724 9.70544V0.316703C82.724 0.162156 82.724 0.0848826 82.724 0.0462459C82.8266 0.0167957 82.9377 0.0167957 83.0403 0.0462459H86.4746C86.5847 0.0152856 86.7035 0.0152856 86.8136 0.0462459C86.8136 0.0462459 86.8136 0.181475 86.8136 0.35534V19.6737C86.8136 19.8283 86.8136 19.9442 86.8136 19.9828C86.8136 20.0215 86.6328 19.9828 86.4069 19.9828H83.2211C83.0177 19.9828 82.8821 19.9828 82.837 19.9828C82.7589 19.8836 82.7051 19.7719 82.6788 19.6544L78.7474 10.4782V19.7124C78.7706 19.7818 78.7706 19.8554 78.7474 19.9249C78.6357 19.9452 78.5202 19.9452 78.4085 19.9249H74.9967C74.9081 19.9464 74.8142 19.9464 74.7256 19.9249C74.7256 19.9249 74.7256 19.7896 74.7256 19.6351V0.35534C74.7256 0.181475 74.7256 0.0848826 74.7256 0.0462459C74.7256 0.00760906 74.8611 0.0462459 75.0645 0.0462459H78.3407C78.4762 -0.0117093 78.6118 -0.0117093 78.657 0.0269275Z" fill="white"/>
<path d="M99.9552 0C100.004 0.151897 100.004 0.31322 99.9552 0.465116V3.35271C99.9732 3.40311 99.9732 3.45736 99.9552 3.50775C99.9552 3.50775 99.9552 3.50775 99.7622 3.50775H92.858V8.33333H98.3685C98.3685 8.33333 98.5186 8.33333 98.5615 8.33333C98.6044 8.33333 98.5615 8.33333 98.5615 8.48837V11.6279C98.5657 11.6795 98.5657 11.7313 98.5615 11.7829C98.5615 11.7829 98.5615 11.7829 98.3471 11.7829H92.858V16.531H99.655C99.7058 16.5113 99.7605 16.5011 99.8158 16.5011C99.8711 16.5011 99.9258 16.5113 99.9767 16.531C99.9767 16.531 99.9767 16.686 99.9767 16.8992V19.6705C100.008 19.7786 100.008 19.892 99.9767 20C99.9767 20 99.8051 20 99.6336 20H89.4059C89.1915 20 89.0843 20 89.0414 19.9031C88.9986 19.8062 89.0414 19.7287 89.0414 19.4961V0.426357C89.0005 0.313021 89.0005 0.190855 89.0414 0.0775194C89.0414 0.0775194 89.213 0.0775194 89.4274 0.0775194H99.7408C99.8045 0.0367054 99.878 0.0101373 99.9552 0Z" fill="white"/>
</svg>
