<svg width="292" height="142" viewBox="0 0 292 142" fill="none" xmlns="http://www.w3.org/2000/svg">
<path d="M253.155 19.04V50.81C253.155 56.57 251.685 61.04 248.745 64.22C245.805 67.4 241.755 68.99 236.595 68.99H233.715C228.315 68.99 224.175 67.43 221.295 64.31C218.415 61.13 216.975 56.63 216.975 50.81V19.04C216.975 6.44 222.525 0.139999 233.625 0.139999H236.505C247.605 0.139999 253.155 6.44 253.155 19.04ZM237.765 51.8V17.51C237.765 14.99 236.865 13.73 235.065 13.73C233.265 13.73 232.365 14.99 232.365 17.51V51.8C232.365 54.02 233.295 55.13 235.155 55.13C236.895 55.13 237.765 54.02 237.765 51.8ZM270.941 12.56V27.95H272.831C273.791 27.95 274.481 27.71 274.901 27.23C275.321 26.75 275.531 25.91 275.531 24.71V15.71C275.531 14.45 275.381 13.61 275.081 13.19C274.781 12.77 274.121 12.56 273.101 12.56H270.941ZM270.941 40.55V68H256.091V1.04H279.401C282.821 1.04 285.521 2.06 287.501 4.1C289.481 6.08 290.471 8.99 290.471 12.83V21.65C290.471 26.69 288.521 30.08 284.621 31.82C286.121 32.42 287.471 33.47 288.671 34.97C289.871 36.47 290.471 38.33 290.471 40.55V62.69C290.471 64.61 290.771 66.23 291.371 67.55V68H276.701C275.921 66.98 275.531 65.39 275.531 63.23V43.79C275.531 42.59 275.351 41.75 274.991 41.27C274.691 40.79 274.031 40.55 273.011 40.55H270.941ZM21.891 140L20.811 130.19H13.971L12.981 140H0.111016L8.66102 73.04H26.931L36.291 140H21.891ZM17.391 96.62L15.321 116.96H19.461L17.391 96.62ZM57.37 140V73.04H78.61C87.55 73.04 92.02 77.96 92.02 87.8V124.61C92.02 134.87 87.58 140 78.7 140H57.37ZM72.04 85.46V127.13H74.11C75.13 127.13 75.85 126.83 76.27 126.23C76.69 125.57 76.9 124.52 76.9 123.08V89.33C76.9 87.89 76.72 86.9 76.36 86.36C76 85.76 75.31 85.46 74.29 85.46H72.04ZM95.163 73.04H122.973V86.9H109.833V98.33H120.363V112.55H109.833V125.87H123.513V140H95.163V73.04ZM125.925 140V73.04H153.915V86.81H140.595V98.33H150.855V112.46H140.595V140H125.925ZM156.423 73.04H184.233V86.9H171.093V98.33H181.623V112.55H171.093V125.87H184.773V140H156.423V73.04ZM187.184 73.04H201.584L209.234 105.44V73.04H221.924V140H208.874L200.054 105.08V140H187.184V73.04ZM245.311 124.16V110.75H259.981V124.61C259.981 129.29 258.691 133.22 256.111 136.4C253.591 139.52 249.601 141.08 244.141 141.08H241.531C230.551 141.08 225.061 135.17 225.061 123.35V89.33C225.061 84.11 226.351 79.94 228.931 76.82C231.571 73.7 235.741 72.14 241.441 72.14H244.141C254.701 72.14 259.981 77.36 259.981 87.8V98.78H245.311V88.43C245.311 86.21 244.501 85.1 242.881 85.1C241.981 85.1 241.351 85.34 240.991 85.82C240.631 86.3 240.451 87.17 240.451 88.43V124.16C240.451 126.5 241.291 127.67 242.971 127.67C244.531 127.67 245.311 126.5 245.311 124.16ZM262.858 73.04H290.668V86.9H277.528V98.33H288.058V112.55H277.528V125.87H291.208V140H262.858V73.04Z" fill="black"/>
</svg>
