<svg width="388" height="48" viewBox="0 0 388 48" fill="none" xmlns="http://www.w3.org/2000/svg">
<path d="M0.558 0.871999H22.258V10.42H16.492V47H6.324V10.42H0.558V0.871999ZM48.4394 13.272V35.158C48.4394 39.126 47.4268 42.2053 45.4014 44.396C43.3761 46.5867 40.5861 47.682 37.0314 47.682H35.0474C31.3274 47.682 28.4754 46.6073 26.4914 44.458C24.5074 42.2673 23.5154 39.1673 23.5154 35.158V13.272C23.5154 4.592 27.3388 0.251999 34.9854 0.251999H36.9694C44.6161 0.251999 48.4394 4.592 48.4394 13.272ZM37.8374 35.84V12.218C37.8374 10.482 37.2174 9.614 35.9774 9.614C34.7374 9.614 34.1174 10.482 34.1174 12.218V35.84C34.1174 37.3693 34.7581 38.134 36.0394 38.134C37.2381 38.134 37.8374 37.3693 37.8374 35.84ZM70.8055 47V0.871999H86.3055C89.0335 0.871999 91.0588 1.554 92.3815 2.918C93.7455 4.282 94.4275 6.49333 94.4275 9.552V14.636C94.4275 16.5787 93.9521 18.1493 93.0015 19.348C92.0921 20.5467 91.1415 21.3113 90.1495 21.642C93.5801 22.7167 95.2955 25.3413 95.2955 29.516V36.336C95.2955 43.4453 92.5055 47 86.9255 47H70.8055ZM82.7095 26.664H81.0355V38.816H82.8955C83.5155 38.816 83.9495 38.6507 84.1975 38.32C84.4868 37.948 84.6315 37.2867 84.6315 36.336V29.02C84.6315 28.152 84.4868 27.5527 84.1975 27.222C83.9495 26.85 83.4535 26.664 82.7095 26.664ZM82.5235 8.746H81.0355V18.666H82.4615C83.7015 18.666 84.3215 17.9013 84.3215 16.372V10.916C84.3215 10.172 84.1975 9.63466 83.9495 9.304C83.7015 8.932 83.2261 8.746 82.5235 8.746ZM97.1433 0.871999H116.301V10.42H107.249V18.294H114.503V28.09H107.249V37.266H116.673V47H97.1433V0.871999ZM222.588 0.871999L215.83 29.578V47H205.662V29.764L198.222 0.871999H208.452L210.994 16.062L213.412 0.871999H222.588ZM246.973 13.272V35.158C246.973 39.126 245.96 42.2053 243.935 44.396C241.909 46.5867 239.119 47.682 235.565 47.682H233.581C229.861 47.682 227.009 46.6073 225.025 44.458C223.041 42.2673 222.049 39.1673 222.049 35.158V13.272C222.049 4.592 225.872 0.251999 233.519 0.251999H235.503C243.149 0.251999 246.973 4.592 246.973 13.272ZM236.371 35.84V12.218C236.371 10.482 235.751 9.614 234.511 9.614C233.271 9.614 232.651 10.482 232.651 12.218V35.84C232.651 37.3693 233.291 38.134 234.573 38.134C235.771 38.134 236.371 37.3693 236.371 35.84ZM248.995 36.026V0.871999H259.535V35.53C259.535 37.1007 260.093 37.886 261.209 37.886C262.325 37.886 262.883 37.1007 262.883 35.53V0.871999H273.423V36.026C273.423 39.5807 272.431 42.4327 270.447 44.582C268.463 46.69 265.694 47.744 262.139 47.744H260.155C256.435 47.744 253.645 46.7107 251.785 44.644C249.925 42.5773 248.995 39.7047 248.995 36.026ZM285.866 8.808V19.41H287.168C287.829 19.41 288.304 19.2447 288.594 18.914C288.883 18.5833 289.028 18.0047 289.028 17.178V10.978C289.028 10.11 288.924 9.53133 288.718 9.242C288.511 8.95266 288.056 8.808 287.354 8.808H285.866ZM285.866 28.09V47H275.636V0.871999H291.694C294.05 0.871999 295.91 1.57467 297.274 2.98C298.638 4.344 299.32 6.34866 299.32 8.994V15.07C299.32 18.542 297.976 20.8773 295.29 22.076C296.323 22.4893 297.253 23.2127 298.08 24.246C298.906 25.2793 299.32 26.5607 299.32 28.09V43.342C299.32 44.6647 299.526 45.7807 299.94 46.69V47H289.834C289.296 46.2973 289.028 45.202 289.028 43.714V30.322C289.028 29.4953 288.904 28.9167 288.656 28.586C288.449 28.2553 287.994 28.09 287.292 28.09H285.866ZM312.153 0.251999H314.447C321.267 0.251999 324.677 3.39333 324.677 9.676V15.194H314.819V10.234C314.819 8.91133 314.302 8.25 313.269 8.25C312.236 8.25 311.719 8.932 311.719 10.296V11.474C311.719 12.466 311.864 13.2927 312.153 13.954C312.484 14.6153 313.083 15.3593 313.951 16.186L319.221 20.898C321.536 23.006 323.127 24.9693 323.995 26.788C324.863 28.6067 325.297 30.7767 325.297 33.298V35.592C325.297 39.312 324.346 42.2467 322.445 44.396C320.544 46.5453 317.692 47.62 313.889 47.62H311.657C304.506 47.62 300.931 44.2307 300.931 37.452V30.074H310.975V36.46C310.975 38.072 311.554 38.878 312.711 38.878C313.827 38.878 314.385 37.9687 314.385 36.15V34.91C314.385 33.5047 314.24 32.43 313.951 31.686C313.662 30.9007 313 30.0327 311.967 29.082L306.635 24.308C303.122 21.1667 301.365 17.1987 301.365 12.404V10.234C301.365 7.09266 302.274 4.654 304.093 2.918C305.953 1.14067 308.64 0.251999 312.153 0.251999ZM326.979 0.871999H346.137V10.42H337.085V18.294H344.339V28.09H337.085V37.266H346.509V47H326.979V0.871999ZM348.171 0.871999H358.401V37.204H366.771V47H348.171V0.871999ZM368.454 47V0.871999H387.736V10.358H378.56V18.294H385.628V28.028H378.56V47H368.454Z" fill="white"/>
</svg>
